<svg xmlns="http://www.w3.org/2000/svg" viewBox="0 0 64 64">
  <defs>
    <linearGradient id="cg1" x1="0" y1="0" x2="0" y2="1">
      <stop offset="0%" stop-color="#FF5252"/>
      <stop offset="100%" stop-color="#C62828"/>
    </linearGradient>
    <linearGradient id="cg2" x1="0" y1="0" x2="0" y2="1">
      <stop offset="0%" stop-color="#FF8A80"/>
      <stop offset="100%" stop-color="#D32F2F"/>
    </linearGradient>
  </defs>
  <circle cx="32" cy="32" r="28" fill="#FFEBEE" opacity="0.3"/>
  <!-- stem -->
  <path d="M32 44 Q28 52 24 58" fill="none" stroke="#4CAF50" stroke-width="2.5" stroke-linecap="round"/>
  <path d="M32 44 Q36 52 40 58" fill="none" stroke="#4CAF50" stroke-width="2" stroke-linecap="round"/>
  <!-- leaf -->
  <ellipse cx="20" cy="54" rx="5" ry="3" fill="#66BB6A" transform="rotate(-30 20 54)"/>
  <!-- cherry 1 -->
  <circle cx="24" cy="22" r="14" fill="url(#cg1)"/>
  <ellipse cx="18" cy="17" rx="4" ry="3" fill="white" opacity="0.35"/>
  <!-- cherry 2 -->
  <circle cx="40" cy="28" r="14" fill="url(#cg2)"/>
  <ellipse cx="34" cy="23" rx="4" ry="3" fill="white" opacity="0.35"/>
  <!-- faces -->
  <circle cx="23" cy="22" r="1.8" fill="#5D0000"/>
  <circle cx="27" cy="22" r="1.8" fill="#5D0000"/>
  <path d="M22 27 Q25 30 28 27" fill="none" stroke="#5D0000" stroke-width="1.5" stroke-linecap="round"/>
  <circle cx="39" cy="28" r="1.8" fill="#5D0000"/>
  <circle cx="43" cy="28" r="1.8" fill="#5D0000"/>
  <path d="M38 33 Q41 36 44 33" fill="none" stroke="#5D0000" stroke-width="1.5" stroke-linecap="round"/>
</svg>