<svg xmlns="http://www.w3.org/2000/svg" viewBox="0 0 64 64">
  <defs>
    <linearGradient id="cag" x1="0" y1="0" x2="1" y2="1">
      <stop offset="0%" stop-color="#FF5252"/>
      <stop offset="33%" stop-color="#FFB74D"/>
      <stop offset="66%" stop-color="#4FC3F7"/>
      <stop offset="100%" stop-color="#81C784"/>
    </linearGradient>
  </defs>
  <circle cx="32" cy="34" r="28" fill="#FFF3E0" opacity="0.3"/>
  <!-- candy wrapper -->
  <ellipse cx="32" cy="32" rx="14" ry="20" fill="url(#cag)" stroke="#5D4037" stroke-width="2"/>
  <!-- wrapper twists -->
  <path d="M18 16 Q14 8 10 4" fill="none" stroke="#5D4037" stroke-width="2" stroke-linecap="round"/>
  <path d="M46 16 Q50 8 54 4" fill="none" stroke="#5D4037" stroke-width="2" stroke-linecap="round"/>
  <path d="M18 48 Q14 56 10 60" fill="none" stroke="#5D4037" stroke-width="2" stroke-linecap="round"/>
  <path d="M46 48 Q50 56 54 60" fill="none" stroke="#5D4037" stroke-width="2" stroke-linecap="round"/>
  <!-- swirl lines -->
  <path d="M24 24 Q28 20 32 24 Q36 28 40 24" fill="none" stroke="white" stroke-width="2.5" opacity="0.5" stroke-linecap="round"/>
  <path d="M24 34 Q28 30 32 34 Q36 38 40 34" fill="none" stroke="white" stroke-width="2.5" opacity="0.5" stroke-linecap="round"/>
  <path d="M24 44 Q28 40 32 44 Q36 48 40 44" fill="none" stroke="white" stroke-width="2.5" opacity="0.5" stroke-linecap="round"/>
  <!-- face -->
  <circle cx="27" cy="32" r="2" fill="#5D4037"/>
  <circle cx="37" cy="32" r="2" fill="#5D4037"/>
  <ellipse cx="32" cy="40" rx="4" ry="3" fill="#5D4037" opacity="0.3"/>
</svg>