<svg xmlns="http://www.w3.org/2000/svg" viewBox="0 0 64 64">
  <defs>
    <linearGradient id="clg" x1="0" y1="0" x2="0" y2="1">
      <stop offset="0%" stop-color="#69F0AE"/>
      <stop offset="100%" stop-color="#2E7D32"/>
    </linearGradient>
  </defs>
  <circle cx="32" cy="32" r="28" fill="#E8F5E9" opacity="0.4"/>
  <!-- four leaves -->
  <g transform="translate(32,30)">
    <path d="M0 0 Q-12 -12 -4 -22 Q4 -12 0 0" fill="url(#clg)" stroke="#1B5E20" stroke-width="1.5"/>
    <path d="M0 0 Q12 -12 4 -22 Q-4 -12 0 0" fill="url(#clg)" stroke="#1B5E20" stroke-width="1.5"/>
    <path d="M0 0 Q-12 12 -4 22 Q4 12 0 0" fill="url(#clg)" stroke="#1B5E20" stroke-width="1.5"/>
    <path d="M0 0 Q12 12 4 22 Q-4 12 0 0" fill="url(#clg)" stroke="#1B5E20" stroke-width="1.5"/>
  </g>
  <!-- stem -->
  <line x1="32" y1="42" x2="32" y2="58" stroke="#388E3C" stroke-width="2.5" stroke-linecap="round"/>
  <!-- face on stem -->
  <circle cx="32" cy="48" r="1.5" fill="#1B5E20"/>
  <circle cx="38" cy="48" r="1.5" fill="#1B5E20"/>
  <path d="M33 50 Q35.5 52 38 50" fill="none" stroke="#1B5E20" stroke-width="1" stroke-linecap="round"/>
</svg>