<svg xmlns="http://www.w3.org/2000/svg" viewBox="0 0 64 64">
  <defs>
    <linearGradient id="rbg" x1="0" y1="0" x2="0" y2="1">
      <stop offset="0%" stop-color="#FF5252"/>
      <stop offset="50%" stop-color="#FFEB3B"/>
      <stop offset="100%" stop-color="#4FC3F7"/>
    </linearGradient>
  </defs>
  <circle cx="32" cy="32" r="28" fill="#E1F5FE" opacity="0.3"/>
  <!-- rainbow arcs -->
  <path d="M8 42 A28 28 0 0 1 56 42" fill="none" stroke="#E53935" stroke-width="4"/>
  <path d="M12 40 A24 24 0 0 1 52 40" fill="none" stroke="#FFB300" stroke-width="4"/>
  <path d="M16 38 A20 20 0 0 1 48 38" fill="none" stroke="#43A047" stroke-width="4"/>
  <path d="M20 36 A16 16 0 0 1 44 36" fill="none" stroke="#1E88E5" stroke-width="4"/>
  <path d="M24 34 A12 12 0 0 1 40 34" fill="none" stroke="#8E24AA" stroke-width="4"/>
  <!-- clouds -->
  <ellipse cx="12" cy="44" rx="8" ry="5" fill="white" stroke="#E0E0E0" stroke-width="1.5"/>
  <ellipse cx="19" cy="46" rx="6" ry="4" fill="white" stroke="#E0E0E0" stroke-width="1.5"/>
  <ellipse cx="52" cy="44" rx="8" ry="5" fill="white" stroke="#E0E0E0" stroke-width="1.5"/>
  <ellipse cx="45" cy="46" rx="6" ry="4" fill="white" stroke="#E0E0E0" stroke-width="1.5"/>
  <!-- face on middle cloud -->
  <circle cx="48" cy="45" r="1.2" fill="#BDBDBD"/>
  <circle cx="54" cy="45" r="1.2" fill="#BDBDBD"/>
  <ellipse cx="51" cy="48" rx="2" ry="1.5" fill="#BDBDBD"/>
</svg>